<?xml version="1.0" encoding="utf-8"?>
<svg viewBox="502.455 49.239 329 98.4" xmlns="http://www.w3.org/2000/svg">
  <g transform="matrix(2.05148, 0, 0, 2.05148, -142.967196, -140.363161)" style="">
    <g transform="matrix(0.487453, 0, 0, 0.487453, 300.477173, 71.754044)">
      <path class="logo-cake" d="M74.1,51.4c-1.2,0-2.3,0-3.2-0.1s-1.8-0.1-2.6-0.2s-1.7-0.3-2.6-0.5c-0.9-0.2-1.9-0.5-3-0.9 c0.4-1.3,0.8-2.5,1.1-3.7s0.8-2.4,1.2-3.6c1.1,0.3,2.1,0.5,2.8,0.7c0.8,0.2,1.6,0.3,2.3,0.4c0.7,0.1,1.5,0.2,2.2,0.2 c0.8,0,1.6,0.1,2.7,0.1h1.2h20.9c0.1,0.4,0.2,0.8,0.3,1.2c0.1,0.4,0.2,0.7,0.2,1c0.1,0.6,0.2,1.2,0.3,1.7s0.1,1.1,0.1,1.8v7.6 c0,1.3-0.1,2.5-0.2,3.6c-0.2,1.1-0.4,2.2-0.7,3.2c-0.3,1-0.7,2-1.2,2.9c-0.5,0.9-1.1,1.9-1.7,2.8c-0.5,0.8-1.3,1.8-2.1,3 c-0.9,1.1-1.8,2.3-2.8,3.5c-1,1.2-2,2.4-3,3.5c-1,1.1-1.9,2.1-2.7,3l-6.8-5.8l4.7-5.4c1.2-1.3,2.2-2.5,3-3.5c0.8-1,1.5-1.9,2-2.7 c0.4-0.7,0.8-1.3,1.1-1.8c0.3-0.6,0.5-1.2,0.6-1.7c0.2-0.6,0.3-1.2,0.3-1.8c0.1-0.6,0.1-1.3,0.1-2.1v-6.3H74.1z M63.1,69.7 c0-1,0-1.9,0-2.8c0-0.8,0.1-1.6,0.1-2.4c0.1-0.8,0.1-1.5,0.3-2.3c0.1-0.8,0.3-1.6,0.5-2.4c1.6,0.2,3.1,0.4,4.7,0.6 c1.6,0.2,3.1,0.6,4.7,1c-0.3,1.3-0.5,2.6-0.6,4c-0.1,1.3-0.2,2.9-0.2,4.6v21.5h-9.6V69.7z"/>
      <path class="logo-cake" d="M123.1,43.8v13.4c0,1.3,0,2.3,0,3.2s-0.1,1.6-0.1,2.3s-0.2,1.4-0.3,2c-0.1,0.7-0.3,1.4-0.5,2.2l-9.5-1.4 c0.1-0.7,0.2-1.3,0.3-1.9c0.1-0.6,0.2-1.2,0.2-1.9c0.1-0.7,0.1-1.4,0.2-2.2c0-0.8,0.1-1.8,0.1-3v-5.1h-8.1v-7.6H123.1z"/>
      <path class="logo-cake" d="M148.6,43.8v13.4c0,1.3,0,2.3,0,3.2s-0.1,1.6-0.1,2.3s-0.2,1.4-0.3,2c-0.1,0.7-0.3,1.4-0.5,2.2l-9.5-1.4 c0.1-0.7,0.2-1.3,0.3-1.9c0.1-0.6,0.2-1.2,0.2-1.9c0.1-0.7,0.1-1.4,0.2-2.2c0-0.8,0.1-1.8,0.1-3v-5.1h-8.1v-7.6H148.6z"/>
      <path class="logo-cake" d="M168.7,51.4c-1.2,0-2.3,0-3.2-0.1s-1.8-0.1-2.6-0.2s-1.7-0.3-2.6-0.5c-0.9-0.2-1.9-0.5-3-0.9 c0.4-1.3,0.8-2.5,1.1-3.7s0.8-2.4,1.2-3.6c1.1,0.3,2.1,0.5,2.8,0.7s1.6,0.3,2.3,0.4s1.5,0.2,2.2,0.2s1.6,0.1,2.7,0.1h1.2h20.9 c0.1,0.4,0.2,0.8,0.3,1.2s0.2,0.7,0.2,1c0.1,0.6,0.2,1.2,0.3,1.7s0.1,1.1,0.1,1.8v7.6c0,1.3-0.1,2.5-0.2,3.6 c-0.2,1.1-0.4,2.2-0.7,3.2c-0.3,1-0.7,2-1.2,2.9c-0.5,0.9-1.1,1.9-1.7,2.8c-0.5,0.8-1.3,1.8-2.1,3s-1.8,2.3-2.8,3.5s-2,2.4-3,3.5 s-1.9,2.1-2.7,3l-6.8-5.8l4.7-5.4c1.2-1.3,2.2-2.5,3-3.5c0.8-1,1.5-1.9,2-2.7c0.4-0.7,0.8-1.3,1.1-1.8c0.3-0.6,0.5-1.2,0.6-1.7 c0.2-0.6,0.3-1.2,0.3-1.8s0.1-1.3,0.1-2.1v-6.3H168.7z M157.7,69.7c0-1,0-1.9,0-2.8c0-0.8,0.1-1.6,0.1-2.4s0.1-1.5,0.3-2.3 c0.1-0.8,0.3-1.6,0.5-2.4c1.6,0.2,3.1,0.4,4.7,0.6s3.1,0.6,4.7,1c-0.3,1.3-0.5,2.6-0.6,4c-0.1,1.3-0.2,2.9-0.2,4.6v21.5h-9.6V69.7z "/>
      <path class="logo-tuti" d="M217.7,43.8v13.4c0,1.3,0,2.3,0,3.2s-0.1,1.6-0.1,2.3s-0.2,1.4-0.3,2c-0.1,0.7-0.3,1.4-0.5,2.2l-9.5-1.4 c0.1-0.7,0.2-1.3,0.3-1.9c0.1-0.6,0.2-1.2,0.2-1.9c0.1-0.7,0.1-1.4,0.2-2.2c0-0.8,0.1-1.8,0.1-3v-5.1h-8.1v-7.6H217.7z"/>
      <path class="logo-tuti" d="M251.3,43.8c1.5,0,2.9,0.2,4.4,0.5c1.4,0.3,2.7,0.9,3.9,1.9c1.1,0.9,2,2.1,2.7,3.7c0.7,1.6,1.1,3.6,1.1,6.2 v24.4h-9.6V58.5c0-1.5-0.1-2.6-0.2-3.6s-0.4-1.6-0.9-2.1c-0.4-0.5-1.1-0.9-1.9-1.1c-0.8-0.2-2-0.3-3.4-0.3h-5.3 c-0.8,1.6-1.3,3.4-1.6,5.2c-0.3,1.9-0.5,3.7-0.5,5.4c0,1,0,2,0.1,2.9c0,0.9,0.1,1.8,0.3,2.7c0.1,0.9,0.3,1.7,0.5,2.6 c0.2,0.9,0.4,1.7,0.7,2.7l0.7,2.1c-0.1,1-0.2,1.9-0.3,2.8c-0.1,0.9-0.3,1.8-0.5,2.6h-17.3v-7.6h8.1c-0.6-1.8-1.1-3.5-1.4-5.2 c-0.3-1.7-0.5-3.3-0.5-4.9c0-1.3,0.1-2.6,0.2-3.9s0.4-2.6,0.8-4c0.2-0.6,0.4-1.2,0.6-1.8c0.2-0.6,0.4-1.2,0.7-1.7 c-1-0.1-2-0.3-3-0.5c-1-0.2-2.2-0.6-3.5-1c0.4-1.3,0.8-2.5,1.1-3.7s0.8-2.4,1.2-3.6c1.2,0.3,2.2,0.6,3.1,0.8 c0.9,0.2,1.7,0.3,2.5,0.4s1.6,0.2,2.5,0.2c0.9,0,1.9,0,3.2,0H251.3z"/>
      <path class="logo-tuti" d="M287.9,43.8v36.6h-9.6V51.4h-6.2v-7.6H287.9z"/>
      <path class="logo-tuti" d="M322.1,43.8c1.5,0,2.9,0.2,4.4,0.5c1.4,0.3,2.7,0.9,3.9,1.9c1.1,0.9,2,2.1,2.7,3.7c0.7,1.6,1.1,3.6,1.1,6.2 v24.4h-9.6V58.5c0-1.5-0.1-2.6-0.2-3.6s-0.4-1.6-0.9-2.1c-0.4-0.5-1.1-0.9-1.9-1.1c-0.8-0.2-2-0.3-3.4-0.3h-5.3 c-0.8,1.6-1.3,3.4-1.6,5.2c-0.3,1.9-0.5,3.7-0.5,5.4c0,1,0,2,0.1,2.9c0,0.9,0.1,1.8,0.3,2.7c0.1,0.9,0.3,1.7,0.5,2.6 c0.2,0.9,0.4,1.7,0.7,2.7L313,75c-0.1,1-0.2,1.9-0.3,2.8c-0.1,0.9-0.3,1.8-0.5,2.6h-17.3v-7.6h8.1c-0.6-1.8-1.1-3.5-1.4-5.2 c-0.3-1.7-0.5-3.3-0.5-4.9c0-1.3,0.1-2.6,0.2-3.9s0.4-2.6,0.8-4c0.2-0.6,0.4-1.2,0.6-1.8c0.2-0.6,0.4-1.2,0.7-1.7 c-1-0.1-2-0.3-3-0.5c-1-0.2-2.2-0.6-3.5-1c0.4-1.3,0.8-2.5,1.1-3.7s0.8-2.4,1.2-3.6c1.2,0.3,2.2,0.6,3.1,0.8 c0.9,0.2,1.7,0.3,2.5,0.4s1.6,0.2,2.5,0.2c0.9,0,1.9,0,3.2,0H322.1z"/>
    </g>

    <rect class="logo-divider" x="314.613" y="123.912" width="160.372" height="2.437" style="" rx="1.219" ry="1.219"/>

    <g class="logo-subtitle-group" transform="matrix(0.487453, 0, 0, 0.487453, 300.477173, 71.754044)">
      <path class="logo-subtitle" d="M141.6,123.1c0.3-0.5,0.6-0.8,0.9-1c0.3-0.2,0.7-0.3,1-0.3c0.3,0,0.5,0.1,0.7,0.2s0.4,0.3,0.5,0.5 c0.1,0.2,0.2,0.4,0.3,0.7s0.1,0.6,0.1,0.9l-0.5,11l-1.5,0.4l-0.5-10.3L141.6,123.1z M143.8,137.6c0.2,0,0.4,0,0.6,0.1 c0.2,0.1,0.4,0.2,0.5,0.3c0.1,0.1,0.2,0.3,0.3,0.5c0.1,0.2,0.1,0.4,0.1,0.6c0,0.2,0,0.4-0.1,0.6s-0.2,0.4-0.3,0.5s-0.3,0.3-0.5,0.3 s-0.4,0.1-0.6,0.1c-0.2,0-0.4,0-0.6-0.1c-0.2-0.1-0.4-0.2-0.5-0.3c-0.1-0.1-0.3-0.3-0.3-0.5c-0.1-0.2-0.1-0.4-0.1-0.6 s0-0.4,0.1-0.6c0.1-0.2,0.2-0.4,0.3-0.5c0.1-0.1,0.3-0.3,0.5-0.3C143.4,137.6,143.6,137.6,143.8,137.6z"/>
      <path class="logo-subtitle" d="M153.3,129.2c-0.4,0-0.7,0-1,0s-0.6,0-0.9-0.1s-0.6-0.1-0.8-0.2c-0.3-0.1-0.6-0.2-0.9-0.3 c0.1-0.3,0.2-0.6,0.3-0.9s0.2-0.6,0.3-0.9c0.4,0.1,0.7,0.2,0.9,0.3s0.5,0.1,0.8,0.1c0.3,0,0.5,0,0.8,0.1s0.6,0,1,0h2.5 c0.5,0,1.1,0.1,1.6,0.2s1,0.3,1.4,0.7c0.4,0.3,0.7,0.8,1,1.4s0.4,1.3,0.4,2.3v8.7h-2.2V132c0-0.5,0-1-0.1-1.3s-0.2-0.6-0.4-0.9 c-0.2-0.2-0.5-0.4-0.8-0.5s-0.8-0.1-1.3-0.1H153.3z M149.9,136.4c0-0.4,0-0.7,0-1s0-0.6,0-0.8s0.1-0.5,0.1-0.8 c0-0.3,0.1-0.6,0.2-0.9c0.4,0.1,0.7,0.1,1.1,0.2c0.4,0.1,0.7,0.1,1.1,0.2c-0.1,0.3-0.1,0.6-0.1,0.8c0,0.2-0.1,0.5-0.1,0.7 c0,0.2,0,0.5,0,0.8c0,0.3,0,0.6,0,0.9v3.9h-2.2V136.4z"/>
      <path class="logo-subtitle" d="M167.7,129.2c-0.4,0-0.7,0-1,0s-0.6,0-0.9-0.1s-0.6-0.1-0.8-0.2c-0.3-0.1-0.6-0.2-0.9-0.3 c0.1-0.3,0.2-0.6,0.3-0.9s0.2-0.6,0.3-0.9c0.4,0.1,0.7,0.2,0.9,0.3s0.5,0.1,0.8,0.1c0.3,0,0.5,0,0.8,0.1s0.6,0,1,0h0.8 c0.5,0,1,0.1,1.5,0.2c0.5,0.1,1,0.4,1.4,0.7s0.7,0.8,1,1.4s0.4,1.3,0.5,2.2c0,0.5,0,0.9,0.1,1.4c0,0.5,0,1,0,1.5s0,1,0,1.6 s0,1.1,0,1.8c0,0.2,0,0.4,0,0.6c0,0.2,0,0.3-0.1,0.5s-0.1,0.4-0.1,0.6c0,0.2-0.1,0.5-0.2,0.8h-9.7v-1.9h7.9c0-1,0-2.1,0-3.2 c0-1.1,0-2.2-0.1-3.3c0-0.5-0.1-1-0.1-1.3s-0.2-0.6-0.4-0.9c-0.2-0.2-0.4-0.4-0.8-0.5s-0.7-0.1-1.3-0.1H167.7z"/>
      <path class="logo-subtitle" d="M181.8,127.2v4.1c0,0.5,0,0.8,0,1.1s0,0.6-0.1,0.8s-0.1,0.5-0.1,0.7s-0.1,0.5-0.2,0.8l-2.1-0.3 c0-0.3,0.1-0.5,0.1-0.7s0.1-0.4,0.1-0.7s0-0.5,0.1-0.8s0-0.7,0-1.1v-2.1h-2.9v-1.9H181.8z"/>
      <path class="logo-subtitle" d="M187.2,138.5c-0.3-0.8-0.5-1.6-0.6-2.3s-0.2-1.5-0.2-2.2c0-0.8,0.1-1.7,0.3-2.4c0.2-0.8,0.6-1.6,1-2.4 c-0.2,0-0.4,0-0.6,0c-0.2,0-0.4-0.1-0.6-0.1c-0.2,0-0.4-0.1-0.6-0.2c-0.2-0.1-0.4-0.1-0.7-0.2c0.1-0.3,0.2-0.6,0.3-0.9 s0.2-0.6,0.3-0.9c0.4,0.1,0.7,0.2,0.9,0.3s0.5,0.1,0.8,0.1c0.3,0,0.5,0,0.8,0.1s0.6,0,1,0h3.3c0.5,0,1.1,0.1,1.6,0.2s1,0.3,1.4,0.7 c0.4,0.3,0.8,0.8,1,1.4s0.4,1.3,0.4,2.3v8.7h-2.2V132c0-0.5,0-1-0.1-1.3c-0.1-0.4-0.2-0.6-0.4-0.9c-0.2-0.2-0.4-0.4-0.8-0.5 s-0.7-0.1-1.2-0.1h-2.5c-0.5,0.7-0.8,1.4-1,2.2s-0.3,1.6-0.3,2.5c0,0.7,0.1,1.4,0.2,2c0.1,0.7,0.2,1.3,0.4,1.9l0.4,1.4 c0,0.2,0,0.4-0.1,0.7c0,0.2,0,0.4-0.1,0.7h-5v-1.9H187.2z"/>
      <path class="logo-subtitle" d="M200.9,133.4c0-0.4,0-0.8,0-1.1c0-0.4,0-0.7,0.1-1s0.1-0.7,0.2-1s0.2-0.7,0.4-1.1c-0.3,0-0.6-0.1-0.8-0.2 c-0.3-0.1-0.6-0.2-0.9-0.3c0.1-0.3,0.2-0.6,0.3-0.9s0.2-0.6,0.3-0.9c0.4,0.1,0.7,0.2,0.9,0.3s0.5,0.1,0.8,0.1c0.3,0,0.5,0,0.8,0.1 s0.6,0,1,0h3.1c0.5,0,1.1,0.1,1.6,0.2s1,0.3,1.4,0.7c0.4,0.3,0.7,0.8,1,1.3s0.4,1.3,0.4,2.2v8.8h-2.2V132c0-0.5,0-1-0.1-1.3 s-0.2-0.6-0.4-0.9c-0.2-0.2-0.5-0.4-0.8-0.5c-0.3-0.1-0.7-0.1-1.2-0.1h-3c-0.2,0.4-0.3,0.7-0.4,1.1c-0.1,0.4-0.2,0.7-0.2,1 s-0.1,0.7-0.1,1c0,0.3,0,0.6,0,1v7.2h-2.2V133.4z"/>
      <path class="logo-subtitle" d="M222,140.5c0-0.2,0-0.5,0-0.8s0-0.6,0-1c0-0.4,0-0.7,0-1.1s0-0.7,0-1.1c0-0.6,0.1-1.2,0.1-1.7 c0.1-0.5,0.2-0.9,0.3-1.4s0.3-0.8,0.5-1.1s0.5-0.7,0.8-1c-0.3-0.4-0.5-0.8-0.8-1.2s-0.4-0.7-0.5-1c-0.1-0.3-0.2-0.6-0.3-0.9 s-0.2-0.6-0.2-0.9c0.3-0.1,0.6-0.3,1-0.4c0.4-0.1,0.7-0.2,1.1-0.3c0,0.1,0.1,0.2,0.1,0.3c0,0.1,0.1,0.2,0.1,0.3 c0.1,0.3,0.2,0.5,0.3,0.8s0.2,0.6,0.4,0.9s0.4,0.7,0.6,1.1s0.6,0.8,1,1.3c0.1,0.2,0.3,0.3,0.4,0.5c0.1,0.1,0.3,0.3,0.5,0.5 s0.4,0.5,0.7,0.8c0.3,0.3,0.6,0.7,1,1.2l0.1,0.1c0.3-0.2,0.6-0.5,0.7-0.7s0.4-0.5,0.5-0.8c0.1-0.3,0.3-0.6,0.4-0.9 c0.1-0.3,0.2-0.7,0.3-1c0.1-0.3,0.2-0.7,0.3-1c0.1-0.3,0.2-0.7,0.3-1l-1.9-0.4l0.3-1.8l3.6,0.6l0.1,1.6c-0.1,0.4-0.2,0.9-0.3,1.3 s-0.3,0.9-0.4,1.3c-0.2,0.5-0.3,1-0.5,1.4s-0.3,0.7-0.5,1.1s-0.4,0.6-0.7,0.9s-0.6,0.5-1,0.8l3,3.6l-1.5,1.4l-6.8-7.8 c-0.3,0.3-0.5,0.7-0.6,1.1s-0.2,0.9-0.3,1.3c-0.1,0.5-0.1,1-0.1,1.5c0,0.5,0,1,0,1.5c0,0.3,0,0.6,0,0.9c0,0.3,0,0.7,0,1.1H222z"/>
      <path class="logo-subtitle" d="M241.7,127.2v4.1c0,0.5,0,0.8,0,1.1s0,0.6-0.1,0.8s-0.1,0.5-0.1,0.7s-0.1,0.5-0.2,0.8l-2.1-0.3 c0-0.3,0.1-0.5,0.1-0.7s0.1-0.4,0.1-0.7s0-0.5,0.1-0.8s0-0.7,0-1.1v-2.1h-2.9v-1.9H241.7z"/>
      <path class="logo-subtitle" d="M249.1,129.2c-0.4,0-0.7,0-1,0s-0.6,0-0.9-0.1c-0.3,0-0.6-0.1-0.8-0.2c-0.3-0.1-0.6-0.2-0.9-0.3 c0.1-0.3,0.2-0.6,0.3-0.9c0.1-0.3,0.2-0.6,0.3-0.9c0.4,0.1,0.7,0.2,0.9,0.3s0.5,0.1,0.8,0.1c0.3,0,0.5,0,0.8,0.1c0.3,0,0.6,0,1,0 h0.4c0.5,0,1.1,0.1,1.6,0.2s1,0.3,1.4,0.7c0.4,0.3,0.7,0.8,1,1.3s0.4,1.3,0.4,2.2v6.9h2.3v1.9h-12v-1.9h7.5V132c0-0.5,0-1-0.1-1.3 c-0.1-0.4-0.2-0.6-0.4-0.9c-0.2-0.2-0.5-0.4-0.8-0.5s-0.7-0.1-1.3-0.1H249.1z"/>
      <path class="logo-subtitle" d="M261.3,138.5c-0.3-0.8-0.5-1.6-0.6-2.3s-0.2-1.5-0.2-2.2c0-0.8,0.1-1.7,0.3-2.4c0.2-0.8,0.6-1.6,1-2.4 c-0.2,0-0.4,0-0.6,0c-0.2,0-0.4-0.1-0.6-0.1c-0.2,0-0.4-0.1-0.6-0.2c-0.2-0.1-0.4-0.1-0.7-0.2c0.1-0.3,0.2-0.6,0.3-0.9 c0.1-0.3,0.2-0.6,0.3-0.9c0.4,0.1,0.7,0.2,0.9,0.3s0.5,0.1,0.8,0.1c0.3,0,0.5,0,0.8,0.1c0.3,0,0.6,0,1,0h3.3c0.5,0,1.1,0.1,1.6,0.2 c0.5,0.1,1,0.3,1.4,0.7c0.4,0.3,0.8,0.8,1,1.4c0.3,0.6,0.4,1.3,0.4,2.3v8.7H269V132c0-0.5,0-1-0.1-1.3c-0.1-0.4-0.2-0.6-0.4-0.9 c-0.2-0.2-0.4-0.4-0.8-0.5s-0.7-0.1-1.2-0.1H264c-0.5,0.7-0.8,1.4-1,2.2c-0.2,0.8-0.3,1.6-0.3,2.5c0,0.7,0.1,1.4,0.2,2 c0.1,0.7,0.2,1.3,0.4,1.9l0.4,1.4c0,0.2,0,0.4-0.1,0.7c0,0.2,0,0.4-0.1,0.7h-5v-1.9H261.3z"/>
    </g>
    <path class="logo-cake punctuation" d="M 433.308 104.413 L 433.308 104.413 C 432.626 104.413 432.09 103.877 432.09 103.195 L 432.09 103.195 C 432.09 102.512 432.626 101.976 433.308 101.976 L 433.308 101.976 C 433.991 101.976 434.527 102.512 434.527 103.195 L 434.527 103.195 C 434.527 103.877 433.991 104.413 433.308 104.413 Z"/>
    <path class="logo-cake punctuation" d="M 455.244 104.413 L 455.244 104.413 C 454.561 104.413 454.025 103.877 454.025 103.195 L 454.025 103.195 C 454.025 102.512 454.561 101.976 455.244 101.976 L 455.244 101.976 C 455.926 101.976 456.462 102.512 456.462 103.195 L 456.462 103.195 C 456.462 103.877 455.926 104.413 455.244 104.413 Z"/>
    <path class="logo-cake punctuation" d="M 421.122 115.625 L 421.122 115.625 C 420.439 115.625 419.903 115.089 419.903 114.406 L 419.903 114.406 C 419.903 113.724 420.439 113.188 421.122 113.188 L 421.122 113.188 C 421.804 113.188 422.34 113.724 422.34 114.406 L 422.34 114.406 C 422.34 115.089 421.804 115.625 421.122 115.625 Z"/>
    <path class="logo-tuti punctuation" d="M 385.05 115.625 L 385.05 115.625 C 384.368 115.625 383.832 115.089 383.832 114.406 L 383.832 114.406 C 383.832 113.724 384.368 113.188 385.05 113.188 L 385.05 113.188 C 385.733 113.188 386.269 113.724 386.269 114.406 L 386.269 114.406 C 386.269 115.089 385.733 115.625 385.05 115.625 Z"/>
    <path class="logo-tuti punctuation" d="M 388.462 115.625 L 388.462 115.625 C 387.78 115.625 387.244 115.089 387.244 114.406 L 387.244 114.406 C 387.244 113.724 387.78 113.188 388.462 113.188 L 388.462 113.188 C 389.145 113.188 389.681 113.724 389.681 114.406 L 389.681 114.406 C 389.681 115.089 389.145 115.625 388.462 115.625 Z"/>
    <path class="logo-tuti punctuation" d="M 370.427 118.55 L 370.427 118.55 C 369.744 118.55 369.208 118.013 369.208 117.331 L 369.208 117.331 C 369.208 116.648 369.744 116.112 370.427 116.112 L 370.427 116.112 C 371.109 116.112 371.645 116.648 371.645 117.331 L 371.645 117.331 C 371.645 118.013 371.109 118.55 370.427 118.55 Z"/>
    <path class="logo-tuti punctuation" d="M 370.427 115.625 L 370.427 115.625 C 369.744 115.625 369.208 115.089 369.208 114.406 L 369.208 114.406 C 369.208 113.724 369.744 113.188 370.427 113.188 L 370.427 113.188 C 371.109 113.188 371.645 113.724 371.645 114.406 L 371.645 114.406 C 371.645 115.089 371.109 115.625 370.427 115.625 Z"/>
  </g>
</svg>