<?xml version="1.0" encoding="utf-8"?>
<svg viewBox="462.104 283.155 329 120.8" xmlns="http://www.w3.org/2000/svg">
  <g transform="matrix(1, 0, 0, 1, 333.103978, 255.655109)">
    <path class="logo-tuti" d="M151.4,88.3c0.6,0,1.2,0.1,1.8,0.2c0.6,0.2,1.3,0.2,2.2,0.2c3.2,0,5.9-1.2,8.2-3.5c2.3-2.3,4.3-5.3,6.1-8.9 c1.7-3.6,3.2-7.5,4.5-11.7c1.2-4.2,2.4-8.2,3.4-12c0.9-3.5,2-6.3,3.3-8.3c1.2-2,2.4-3.5,3.4-4.6c1.2-1.2,2.5-1.9,3.9-2.2 c-1.4-0.7-3.7-1.5-6.8-2.2c-3.1-0.7-6.5-1.1-10.2-1.1c-2.8,0-5.1,0.6-6.9,1.9c-1.8,1.3-2.7,3-2.7,5.2c0,1.4,0.2,2.6,0.7,3.6 c0.5,1,1,1.8,1.6,2.4c0.6,0.7,1.1,1.2,1.6,1.6c0.5,0.4,0.7,0.8,0.7,1.1c0,1.2-0.7,1.8-2,1.8c-1.2,0-2.7-0.3-4.2-0.8 c-1.6-0.6-3.1-1.4-4.5-2.4c-1.4-1.1-2.6-2.3-3.6-3.8c-1-1.5-1.5-3.1-1.5-5c0-2.4,0.6-4.4,1.9-6c1.2-1.6,2.8-2.8,4.6-3.7 c1.8-0.9,3.8-1.6,6-2c2.1-0.4,4.1-0.6,5.9-0.6c3.1,0,5.9,0.2,8.4,0.5c2.5,0.3,5,0.7,7.5,1.1c2.5,0.4,5.3,0.8,8.2,1.1 c2.9,0.3,6.4,0.5,10.3,0.5c2.4,0,4.3-0.2,5.8-0.5c1.4-0.3,2.5-0.7,3.4-1.1c0.8-0.4,1.4-0.8,1.8-1.1c0.4-0.3,0.8-0.5,1.1-0.5 c0.6,0,1,0.2,1.4,0.6c0.4,0.4,0.6,0.8,0.6,1.3c0,0.4-0.4,1.2-1.1,2.4c-0.7,1.2-1.7,2.4-2.9,3.6s-2.6,2.3-4.1,3.3 c-1.5,1-3.1,1.4-4.8,1.4c-1.5,0-2.9-0.1-4.2-0.2c-1.3-0.2-2.5-0.3-3.4-0.5c-1.1-0.2-2.2-0.5-3.2-0.8c-0.2,0.1-0.6,0.4-0.9,0.8 c-0.4,0.4-0.8,1.2-1.3,2.3c-0.5,1.1-1,2.6-1.6,4.5c-0.6,1.9-1.2,4.3-1.8,7.3c-0.6,2.5-1.1,5.3-1.6,8.3c-0.5,3.1-1.2,6.2-2,9.3 c-0.8,3.1-1.7,6.2-2.8,9.2s-2.5,5.6-4.1,8c-1.6,2.3-3.6,4.2-6,5.6c-2.3,1.4-5.1,2.1-8.2,2.1c-1.9,0-3.6-0.2-5.3-0.6 c-1.6-0.4-3.1-0.9-4.3-1.5c-1.2-0.6-2.2-1.3-2.8-2c-0.7-0.7-1-1.4-1-1.9c0-0.6,0.2-1.1,0.5-1.4C150.5,88.4,150.9,88.3,151.4,88.3z"/>
    <path class="logo-tuti" d="M224,86.3c0,1.1,0.3,1.9,0.8,2.6s1.3,1,2.2,1c1.2,0,2.5-0.4,3.7-1.2c1.2-0.8,2.3-1.7,3.2-2.8c1.1-1.1,2.1-2.5,3.1-4 c0.1-0.2,0.2-0.4,0.5-0.7c0.1-0.1,0.3-0.3,0.6-0.4c0.2-0.2,0.5-0.2,0.8-0.2c0.5,0,0.9,0.2,1.4,0.6s0.6,0.8,0.6,1.3 c0,0.2,0,0.5-0.1,0.7s-0.2,0.5-0.3,0.7c-0.1,0.2-0.3,0.5-0.4,0.8c-1.4,2.2-2.9,4.1-4.6,5.8c-1.4,1.4-3.1,2.7-5.1,3.9 s-4.1,1.8-6.4,1.8c-1.8,0-3.3-0.2-4.6-0.6c-1.3-0.4-2.4-0.9-3.3-1.6c-0.9-0.7-1.6-1.4-2.2-2.2s-1-1.7-1.2-2.6 c-0.7,0.9-1.6,1.7-2.6,2.6c-1,0.8-2,1.6-3.1,2.2c-1.1,0.7-2.3,1.2-3.5,1.6s-2.4,0.6-3.6,0.6c-1.1,0-2.2-0.2-3.3-0.7 c-1.2-0.5-2.2-1.1-3.1-1.9c-0.9-0.8-1.7-1.8-2.3-2.9c-0.6-1.1-0.9-2.3-0.9-3.5c0-1.7,0.3-3.8,0.8-6.2c0.6-2.5,1.2-5,2-7.6 c0.7-2.6,1.5-5,2.4-7.3c0.8-2.3,1.5-4.1,2.1-5.4c0.2-0.5,0.6-0.9,1-1.3c0.4-0.3,0.9-0.5,1.5-0.5c0.7,0,1.5,0.2,2.3,0.7 c0.9,0.4,1.7,0.9,2.4,1.5s1.4,1.1,1.9,1.7c0.5,0.6,0.7,1.1,0.7,1.4c0,1.4-0.3,3-0.9,4.8c-0.6,1.7-1.3,3.6-2.1,5.6 c-0.8,2-1.5,4.1-2.1,6.3c-0.6,2.2-0.9,4.4-0.9,6.7c0,0.7,0.2,1.4,0.6,2c0.4,0.6,0.9,0.8,1.6,0.8c0.7,0,1.5-0.2,2.3-0.6 c0.8-0.4,1.6-0.9,2.3-1.6s1.4-1.4,2.1-2.1c0.6-0.8,1.1-1.5,1.5-2.3c0.5-1,1.1-2.5,1.8-4.6c0.7-2,1.4-4.2,2.1-6.5 c0.7-2.3,1.4-4.6,2.1-6.8c0.7-2.2,1.3-4,1.9-5.3c0.2-0.5,0.6-0.9,1-1.3c0.4-0.3,1-0.5,1.6-0.5c0.7,0,1.4,0.2,2.3,0.7 c0.8,0.4,1.6,0.9,2.4,1.5c0.7,0.6,1.4,1.1,1.9,1.7c0.5,0.6,0.7,1.1,0.7,1.4c0,1.4-0.3,3-0.8,4.6c-0.6,1.6-1.2,3.4-1.8,5.3 c-0.7,1.9-1.3,3.8-1.8,5.9C224.3,81.9,224,84.1,224,86.3z"/>
    <path class="logo-tuti" d="M252.4,89.8c1.2,0,2.5-0.4,3.7-1.2c1.2-0.8,2.3-1.7,3.2-2.8c1.1-1.1,2.1-2.5,3.1-4c0.1-0.2,0.2-0.4,0.5-0.7 c0.1-0.1,0.3-0.3,0.6-0.4c0.2-0.2,0.5-0.2,0.8-0.2c0.5,0,0.9,0.2,1.4,0.6c0.4,0.4,0.6,0.8,0.6,1.3c0,0.2,0,0.5-0.1,0.7 s-0.2,0.5-0.3,0.7c-0.1,0.2-0.2,0.5-0.4,0.8c-1.4,2.2-2.9,4.1-4.6,5.8c-1.4,1.4-3.1,2.7-5.1,3.9s-4.1,1.8-6.4,1.8 c-1.5,0-3-0.3-4.6-0.8c-1.6-0.5-3-1.3-4.2-2.3c-1.3-1-2.3-2.2-3.2-3.5c-0.8-1.4-1.3-2.9-1.3-4.5c0-1.3,0.2-2.9,0.5-4.8 c0.3-1.9,0.7-4,1.3-6.2c0.6-2.2,1.2-4.6,1.9-7.1c0.7-2.5,1.5-4.9,2.3-7.4h-2.5c-0.5,0-0.7-0.3-0.7-0.8c0-0.5,0.3-1.2,0.9-2 c0.6-0.8,1.2-1.3,1.9-1.3h1.9c0.9-2.5,1.8-4.9,2.7-7c0.9-2.1,1.8-4,2.7-5.5c0.2-0.5,0.6-0.9,1-1.3c0.4-0.3,0.9-0.5,1.5-0.5 c0.7,0,1.4,0.2,2.3,0.7c0.8,0.4,1.6,0.9,2.4,1.5c0.7,0.6,1.4,1.2,1.9,1.8c0.5,0.6,0.7,1.2,0.7,1.6c0,0.4-0.3,1.4-0.9,2.9 c-0.6,1.5-1.3,3.4-2.2,5.7h6.2c0.5,0,0.7,0.3,0.7,0.8c0,0.2-0.1,0.6-0.3,0.9c-0.2,0.4-0.4,0.7-0.7,1.1c-0.3,0.3-0.6,0.6-0.9,0.9 c-0.3,0.2-0.6,0.4-0.9,0.4H254c-0.7,2.1-1.5,4.2-2.3,6.5c-0.8,2.3-1.5,4.6-2.1,6.8c-0.6,2.2-1.1,4.4-1.5,6.5 c-0.4,2.1-0.6,4-0.6,5.6c0,1.4,0.5,2.6,1.4,3.5C249.8,89.4,251,89.8,252.4,89.8z"/>
    <path class="logo-tuti" d="M273,86.3c0,1.1,0.3,1.9,0.8,2.6c0.5,0.7,1.3,1,2.2,1c1.2,0,2.5-0.4,3.7-1.2c1.2-0.8,2.3-1.7,3.2-2.8 c1.1-1.1,2.1-2.5,3.1-4c0.1-0.2,0.2-0.4,0.5-0.7c0.1-0.1,0.3-0.3,0.6-0.4c0.2-0.2,0.5-0.2,0.8-0.2c0.5,0,0.9,0.2,1.4,0.6 c0.4,0.4,0.6,0.8,0.6,1.3c0,0.2,0,0.5-0.1,0.7c-0.1,0.2-0.2,0.5-0.3,0.7c-0.1,0.2-0.2,0.5-0.4,0.8c-1.4,2.2-2.9,4.1-4.6,5.8 c-1.4,1.4-3.1,2.7-5.1,3.9s-4.1,1.8-6.4,1.8c-3.5,0-6.4-0.9-8.6-2.8c-2.2-1.9-3.3-4.4-3.3-7.4c0-1.7,0.3-3.7,0.8-6.1 c0.6-2.4,1.2-4.8,2-7.2c0.7-2.4,1.5-4.7,2.4-6.9c0.8-2.2,1.5-3.9,2.1-5.2c0.2-0.5,0.6-0.9,1-1.3c0.4-0.3,0.9-0.5,1.5-0.5 c0.7,0,1.5,0.2,2.3,0.7c0.9,0.4,1.7,0.9,2.4,1.5c0.7,0.6,1.4,1.1,1.9,1.7c0.5,0.6,0.7,1.1,0.7,1.4c0,1.4-0.3,3-0.8,4.6 c-0.6,1.6-1.2,3.4-1.8,5.3c-0.7,1.9-1.2,3.8-1.8,5.9C273.2,81.9,273,84.1,273,86.3z M286.4,41.5c0,1.2-0.2,2.4-0.6,3.6 c-0.4,1.2-1,2.2-1.7,3.1c-0.7,0.9-1.5,1.6-2.4,2.1c-0.9,0.5-1.8,0.8-2.8,0.8c-1.4,0-2.5-0.5-3.5-1.4c-1-0.9-1.5-2.2-1.5-3.9 c0-1.2,0.2-2.3,0.7-3.4c0.4-1.1,1-2.1,1.7-3c0.7-0.9,1.5-1.6,2.5-2.1c0.9-0.5,1.9-0.8,3-0.8c1.4,0,2.5,0.5,3.4,1.4 C285.9,38.7,286.4,39.9,286.4,41.5z"/>
    <path class="logo-cake" d="M323.4,84.6c-1.6,2.2-3.4,4.1-5.5,5.8c-1.8,1.4-4,2.7-6.6,3.9c-2.6,1.2-5.5,1.8-8.9,1.8c-2,0-4-0.2-6-0.7 c-2-0.5-3.8-1.3-5.5-2.4c-1.6-1.1-2.9-2.6-3.9-4.4c-1-1.8-1.5-4-1.5-6.6c0-3.1,0.6-6.1,1.9-8.9c1.3-2.8,2.9-5.3,4.9-7.4 c2-2.1,4.3-3.8,6.8-5c2.5-1.2,4.9-1.9,7.3-1.9c1.7,0,3.2,0.3,4.5,0.8c1.3,0.5,2.4,1.2,3.3,2.1c0.9,0.9,1.6,1.8,2.1,2.9 c0.5,1.1,0.7,2.2,0.7,3.2c0,0.8-0.2,1.6-0.5,2.5c-0.3,0.8-0.8,1.6-1.4,2.3c-0.6,0.7-1.2,1.2-1.8,1.7c-0.7,0.4-1.3,0.7-1.9,0.7 c-1.2,0-2.3-0.4-3.3-1.2c-1-0.8-1.4-1.7-1.4-2.7c0-0.8,0.2-1.5,0.6-2c0.4-0.5,0.8-0.9,1.3-1.4c0.5-0.4,0.9-0.8,1.3-1.1 c0.4-0.3,0.6-0.8,0.6-1.3c0-0.5-0.3-0.9-0.8-1.4c-0.5-0.4-1.2-0.6-1.9-0.6c-1.4,0-2.7,0.5-4,1.5c-1.3,1-2.4,2.4-3.4,4.1 c-1,1.7-1.8,3.6-2.4,5.6c-0.6,2.1-0.9,4.2-0.9,6.3c0,3.2,0.9,5.6,2.7,7.2c1.8,1.6,4,2.3,6.6,2.3c2.1,0,4-0.4,5.8-1.3 c1.7-0.9,3.2-1.8,4.5-2.9c1.5-1.2,2.8-2.7,3.9-4.3c0.1-0.2,0.3-0.4,0.6-0.7c0.2-0.1,0.4-0.3,0.7-0.4c0.2-0.2,0.5-0.2,0.8-0.2 c0.6,0,1,0.2,1.4,0.6c0.4,0.4,0.6,0.8,0.6,1.3c0,0.2-0.1,0.5-0.2,0.7c-0.1,0.2-0.2,0.5-0.4,0.7C323.7,84,323.5,84.3,323.4,84.6z"/>
    <path class="logo-cake" d="M367.7,84.6c-1.4,2.2-2.9,4.1-4.6,5.8c-1.4,1.4-3.1,2.7-5.1,3.9s-4.1,1.8-6.4,1.8c-2.6,0-4.8-0.7-6.6-2 c-1.8-1.3-2.9-3.3-3.2-5.9c-1.2,1.6-2.6,2.9-4,4c-1.2,1-2.6,1.9-4.2,2.7c-1.6,0.8-3.2,1.2-5,1.2c-1.2,0-2.4-0.2-3.6-0.7 c-1.2-0.5-2.1-1.1-3-2c-0.8-0.9-1.5-1.9-2-3.1c-0.5-1.2-0.7-2.5-0.7-3.9c0-3.4,0.6-6.7,1.9-10c1.3-3.3,2.9-6.3,5-8.9 c2-2.6,4.3-4.8,6.9-6.4c2.5-1.6,5.1-2.4,7.6-2.4c1.9,0,3.4,0.2,4.8,0.7s2.4,1,3.2,1.5c0.9,0.7,1.7,1.4,2.2,2.1 c0.7,0,1.4,0.1,2.2,0.2c0.8,0.2,1.5,0.4,2.1,0.7c0.7,0.3,1.2,0.8,1.6,1.4c0.4,0.6,0.7,1.2,0.7,2.1c0,0.7-0.3,1.8-0.8,3.4 c-0.6,1.6-1.2,3.3-1.9,5.2c-0.7,1.9-1.3,3.9-1.9,5.9c-0.6,2-0.8,3.8-0.8,5.4c0,0.7,0.2,1.4,0.7,1.9c0.5,0.5,1.1,0.7,1.9,0.7 c1.2,0,2.5-0.4,3.7-1.2c1.2-0.8,2.3-1.7,3.2-2.8c1.1-1.1,2.1-2.5,3.1-4c0.1-0.2,0.2-0.4,0.5-0.7c0.1-0.1,0.3-0.3,0.6-0.4 c0.2-0.2,0.5-0.2,0.8-0.2c0.5,0,0.9,0.2,1.4,0.6s0.6,0.8,0.6,1.3c0,0.2,0,0.5-0.1,0.7c-0.1,0.2-0.2,0.5-0.3,0.7 C367.9,84,367.8,84.3,367.7,84.6z M346,68.1c0-1.4-0.3-2.4-1-3c-0.7-0.7-1.4-1-2.4-1c-1.4,0-2.8,0.7-4.2,2.1 c-1.4,1.4-2.7,3.2-3.9,5.3c-1.2,2.1-2.1,4.3-2.8,6.8c-0.7,2.4-1.1,4.6-1.1,6.5c0,2.8,0.9,4.2,2.7,4.2c1.1,0,2.4-0.7,3.9-2.2 s2.8-3.3,4.1-5.5s2.4-4.5,3.3-6.9C345.6,72,346,69.9,346,68.1z"/>
    <path class="logo-cake" d="M411.1,84.6c-1.4,2.2-3,4.1-4.7,5.8c-1.4,1.4-3.1,2.7-5.1,3.9s-4.1,1.8-6.3,1.8c-1.7,0-3.5-0.5-5.5-1.5 c-2-1-3.8-2.3-5.5-3.8c-1.7-1.5-3.1-3.2-4.3-4.9c-1.2-1.7-1.7-3.3-1.7-4.8c0-0.6,0.7-1.3,2.1-2.1c1.4-0.8,2.9-1.7,4.6-2.8 c1.6-1.1,3.2-2.3,4.6-3.6c1.4-1.4,2.1-3,2.1-4.8c0-1.7-0.7-2.6-2.1-2.6c-1.7,0-3.4,0.7-5.2,2.1c-1.8,1.4-3.4,3.3-4.9,5.8 s-2.7,5.6-3.6,9.1c-0.9,3.6-1.4,7.6-1.4,12.1c0,0.6-0.1,1-0.3,1.4c-0.2,0.3-0.7,0.5-1.4,0.5c-0.6,0-1.4-0.1-2.5-0.2 c-1-0.2-2-0.4-3-0.8c-1-0.4-1.8-0.9-2.6-1.5s-1.1-1.4-1.1-2.4c0-2.7,0.3-6.2,1-10.3c0.7-4.1,1.7-8.4,3-12.9c1.3-4.5,2.9-9,4.7-13.5 c1.8-4.5,3.9-8.5,6.1-12.1c2.2-3.6,4.7-6.5,7.3-8.7s5.4-3.4,8.3-3.4c1,0,2,0.3,3,0.8c1,0.5,1.9,1.2,2.7,2.1 c0.8,0.8,1.4,1.7,1.9,2.7c0.5,1,0.7,1.8,0.7,2.7c0,1.3-0.3,2.7-1,4.3s-1.5,3.2-2.4,4.8c-1,1.6-2,3.2-3.1,4.8 c-1.1,1.6-2.2,2.9-3.2,4.1c-1,1.2-1.8,2.2-2.5,3c-0.7,0.8-1.1,1.2-1.1,1.3c0.1-0.1,0.3-0.2,0.8-0.4c0.5-0.2,1.1-0.4,1.8-0.7 c0.7-0.2,1.5-0.5,2.5-0.7c0.9-0.2,1.9-0.3,2.9-0.3c1.6,0,3.1,0.7,4.3,2.1c1.3,1.4,1.9,3.1,1.9,5c0,1.8-0.8,3.5-2.3,5 c-1.6,1.6-3.3,3-5.1,4.2c-2.2,1.4-4.6,2.8-7.4,4c0,0.5,0.3,1.2,0.9,2.1c0.6,0.9,1.4,1.9,2.4,2.9c1,1,2.2,1.8,3.5,2.6 c1.3,0.7,2.7,1.1,4.1,1.1c1.4,0,2.6-0.3,3.7-0.9s2.1-1.3,2.9-2.1c0.9-0.9,1.8-1.9,2.5-3c0.1-0.2,0.2-0.4,0.5-0.7 c0.1-0.1,0.3-0.3,0.6-0.4c0.2-0.2,0.5-0.2,0.8-0.2c0.5,0,0.9,0.2,1.4,0.6c0.4,0.4,0.6,0.8,0.6,1.3c0,0.2,0,0.5-0.1,0.7 c-0.1,0.2-0.2,0.5-0.3,0.7C411.3,84,411.2,84.3,411.1,84.6z M397.4,38.4c0-1.2-0.6-1.9-1.7-1.9c-0.9,0-1.9,0.7-3.1,2.1 c-1.2,1.4-2.5,3.3-3.9,5.8c-1.4,2.5-2.9,5.5-4.4,8.9s-3,7.2-4.5,11.3c1-0.9,2.1-2.1,3.4-3.4c1.3-1.4,2.6-2.9,3.9-4.5 c1.3-1.6,2.6-3.3,3.8-5.1c1.2-1.7,2.3-3.4,3.3-5c1-1.6,1.7-3.1,2.3-4.6C397.1,40.5,397.4,39.3,397.4,38.4z"/>
    <path class="logo-cake" d="M427.1,90c1.4,0,2.7-0.2,3.8-0.6c1.1-0.4,2-0.8,2.8-1.3c0.8-0.5,1.4-1,2-1.5c0.6-0.5,1-0.9,1.3-1.3l0.7-0.7 c0.2-0.1,0.4-0.3,0.7-0.4c0.2-0.2,0.5-0.2,0.7-0.2c0.6,0,1,0.2,1.4,0.6s0.6,0.8,0.6,1.3c0,0.2-0.1,0.5-0.2,0.7 c-0.2,0.2-0.3,0.5-0.4,0.7c-0.2,0.2-0.4,0.5-0.6,0.8c-1.3,1.6-2.8,2.9-4.4,4c-1.4,1-3.1,1.9-5.1,2.7c-2,0.8-4.2,1.2-6.8,1.2 c-2.4,0-4.5-0.3-6.5-1c-2-0.7-3.7-1.6-5.1-2.8c-1.4-1.2-2.5-2.7-3.4-4.3c-0.8-1.7-1.2-3.5-1.2-5.5c0-3.5,0.7-6.8,2-9.7 c1.3-2.9,3-5.4,4.9-7.5c2-2.1,4.1-3.7,6.5-4.8s4.5-1.7,6.6-1.7c1.4,0,2.8,0.3,4,0.8c1.2,0.6,2.3,1.3,3.3,2.2 c0.9,0.9,1.7,1.9,2.2,3.1c0.5,1.2,0.8,2.4,0.8,3.6c0,1.1-0.2,2.5-0.7,4.1c-0.5,1.6-1.3,3.1-2.5,4.5c-1.2,1.4-2.7,2.7-4.7,3.7 c-2,1-4.4,1.5-7.3,1.5c-0.7,0-1.4-0.1-2.1-0.3c-0.4-0.1-0.9-0.2-1.4-0.3c0,2.8,0.8,4.9,2.5,6.2C422.9,89.3,424.9,90,427.1,90z M419.3,77.9c1.7,0,3.3-0.5,4.8-1.4c1.5-0.9,2.8-2.1,3.9-3.4c1.1-1.3,1.9-2.7,2.6-4.1c0.6-1.4,0.9-2.6,0.9-3.6 c0-1.2-0.6-1.9-1.7-1.9c-1.3,0-2.6,0.5-3.8,1.6c-1.2,1.1-2.3,2.3-3.3,3.8c-1,1.5-1.8,3.1-2.4,4.8C419.6,75.3,419.3,76.7,419.3,77.9 z"/>
  </g>

  <rect class="logo-divider" x="462.104" y="362.655" width="329" height="7" rx="5.219" ry="5.219"/>

  <g class="logo-subtitle-group" transform="matrix(1, 0, 0, 1, 333.103978, 255.655109)">
    <path class="logo-subtitle" d="M224.7,146.3c-1.2,0.6-2.5,1-3.9,1.3c-1.3,0.3-2.6,0.4-3.9,0.4c-1.6,0-3.1-0.3-4.3-0.7c-1.3-0.5-2.3-1.3-3.2-2.3 s-1.5-2.3-2-3.8c-0.4-1.5-0.7-3.4-0.7-5.5c0-2.3,0.2-4.2,0.7-5.9c0.5-1.6,1.1-3,2-4c0.9-1,1.9-1.8,3.2-2.3s2.7-0.7,4.4-0.7 c1,0,2.1,0.1,3.2,0.3c1.1,0.2,2.3,0.5,3.5,0.9l-0.8,2.5c-1.1-0.4-2-0.7-3-0.9c-0.9-0.2-1.9-0.3-2.8-0.3c-1.2,0-2.3,0.2-3.2,0.6 c-0.9,0.4-1.7,1-2.3,1.8c-0.6,0.8-1.1,1.8-1.4,3.1s-0.4,2.7-0.4,4.5c0,1.7,0.1,3.2,0.4,4.4s0.7,2.3,1.3,3.1 c0.6,0.8,1.3,1.4,2.2,1.8c0.9,0.4,1.9,0.6,3.2,0.6c0.9,0,1.7-0.1,2.6-0.3c0.9-0.2,1.7-0.4,2.4-0.7v-6.8h-3.8v-2.6h6.6V146.3z"/>
    <path class="logo-subtitle" d="M232.5,134c0.3-0.7,0.7-1.3,1-1.9c0.4-0.6,0.8-1,1.2-1.4c0.4-0.4,0.9-0.7,1.4-0.9c0.5-0.2,1.1-0.3,1.7-0.3 c0.2,0,0.5,0,0.7,0s0.5,0.1,0.8,0.1c0,0.6-0.1,1.1-0.1,1.6c-0.1,0.5-0.1,1-0.2,1.5c-0.5-0.1-1-0.2-1.4-0.2c-0.4,0-0.8,0-1.2,0 c-0.5,0.1-0.9,0.3-1.2,0.5c-0.3,0.2-0.7,0.6-0.9,1c-0.3,0.4-0.6,0.9-0.8,1.4s-0.6,1.2-0.9,1.9v10.1h-2.7v-10.9c0-0.7,0-1.3,0-1.9 s0-1.1-0.1-1.6c0-0.5-0.1-1-0.2-1.5c-0.1-0.5-0.2-1-0.4-1.6c0.4-0.1,0.9-0.2,1.3-0.3c0.4-0.1,0.9-0.2,1.3-0.3 c0.1,0.5,0.3,0.9,0.4,1.2c0.1,0.4,0.2,0.7,0.2,1c0.1,0.3,0.1,0.7,0.1,1s0.1,0.7,0.1,1.2H232.5z"/>
    <path class="logo-subtitle" d="M243.6,133.1l-0.7-2.4c1.8-0.8,3.6-1.1,5.5-1.1c1.7,0,3,0.3,3.9,0.9c1,0.7,1.5,1.9,1.5,3.6v7c0,0.9,0,1.9,0,2.9 c0,0.6,0.1,1.2,0.2,1.8c0.1,0.6,0.2,1.1,0.3,1.7l-2.6,0.6c-0.2-0.8-0.4-1.6-0.5-2.5l-0.3,0c-1.3,1.8-3,2.7-5,2.7 c-1.5,0-2.6-0.4-3.5-1.3c-0.9-0.9-1.3-2.1-1.3-3.7c0-1.2,0.2-2.2,0.7-2.9c0.5-0.8,1.2-1.4,2.1-1.9c1.4-0.8,3.4-1.2,5.9-1.2 c0.3,0,0.8,0,1.4,0v-2.6c0-0.8-0.2-1.4-0.7-1.8s-1.2-0.5-2.2-0.5C247,132.1,245.4,132.4,243.6,133.1z M251.2,142.7v-3.6 c-0.3,0-0.7,0-1.2,0c-0.9,0-1.8,0.1-2.5,0.3c-1.2,0.2-2,0.6-2.7,1.2c-0.6,0.5-1,1.3-1,2.3c0,1.8,0.9,2.7,2.7,2.7 c0.9,0,1.8-0.3,2.6-0.8C249.9,144.3,250.6,143.6,251.2,142.7z"/>
    <path class="logo-subtitle" d="M259.2,123.1h2.7v10.2l0.3,0c0.5-1.2,1.1-2.1,1.7-2.7c0.8-0.7,1.7-1.1,2.8-1.1c1.9,0,3.4,0.9,4.4,2.6 c0.9,1.6,1.4,3.7,1.4,6.3c0,3.1-0.7,5.5-2.1,7.2c-1.3,1.6-3.2,2.4-5.8,2.4c-1.4,0-3.2-0.2-5.5-0.5V123.1z M261.7,137.2v8 c1,0.2,1.9,0.3,2.9,0.3c1.7,0,3-0.5,3.8-1.6c0.9-1.1,1.3-2.8,1.3-4.9c0-2-0.2-3.5-0.6-4.6c-0.5-1.4-1.4-2.1-2.7-2.1 c-1.1,0-2.1,0.5-2.9,1.5C263,134.4,262.4,135.6,261.7,137.2z"/>
    <path class="logo-subtitle" d="M286.4,133.1l-0.7-2.4c1.8-0.8,3.6-1.1,5.5-1.1c1.7,0,3,0.3,3.9,0.9c1,0.7,1.5,1.9,1.5,3.6v7c0,0.9,0,1.9,0,2.9 c0,0.6,0.1,1.2,0.2,1.8c0.1,0.6,0.2,1.1,0.3,1.7l-2.6,0.6c-0.2-0.8-0.4-1.6-0.5-2.5l-0.3,0c-1.3,1.8-3,2.7-5,2.7 c-1.5,0-2.6-0.4-3.5-1.3c-0.9-0.9-1.3-2.1-1.3-3.7c0-1.2,0.2-2.2,0.7-2.9c0.5-0.8,1.2-1.4,2.1-1.9c1.4-0.8,3.4-1.2,5.9-1.2 c0.3,0,0.8,0,1.4,0v-2.6c0-0.8-0.2-1.4-0.7-1.8s-1.2-0.5-2.2-0.5C289.8,132.1,288.2,132.4,286.4,133.1z M294,142.7v-3.6 c-0.3,0-0.7,0-1.2,0c-0.9,0-1.8,0.1-2.5,0.3c-1.2,0.2-2,0.6-2.7,1.2c-0.6,0.5-1,1.3-1,2.3c0,1.8,0.9,2.7,2.7,2.7 c0.9,0,1.8-0.3,2.6-0.8C292.7,144.3,293.4,143.6,294,142.7z"/>
    <path class="logo-subtitle" d="M315.8,129.6c0.9,0,1.7,0.1,2.6,0.3s1.7,0.5,2.4,0.8c-0.1,0.4-0.3,0.7-0.5,1.1c-0.2,0.4-0.3,0.7-0.5,1 c-0.3-0.1-0.6-0.2-0.9-0.3c-0.3-0.1-0.7-0.2-1-0.3c-0.4-0.1-0.7-0.1-1.1-0.2c-0.4-0.1-0.7-0.1-1.1-0.1c-0.4,0-0.8,0-1.1,0.1 s-0.7,0.2-1,0.4s-0.5,0.4-0.7,0.8c-0.2,0.3-0.3,0.7-0.3,1.2c0,0.5,0.1,0.9,0.3,1.2c0.2,0.3,0.4,0.6,0.8,0.8 c0.3,0.2,0.7,0.4,1.1,0.5c0.4,0.1,0.9,0.3,1.4,0.4c0.8,0.2,1.5,0.4,2.1,0.7c0.7,0.3,1.2,0.6,1.7,1s0.9,0.9,1.1,1.5 c0.3,0.6,0.4,1.3,0.4,2.2c0,0.9-0.2,1.7-0.5,2.4c-0.3,0.7-0.8,1.2-1.4,1.7s-1.3,0.8-2,1c-0.8,0.2-1.6,0.3-2.5,0.3 c-0.5,0-0.9,0-1.4-0.1c-0.5-0.1-1-0.2-1.4-0.3c-0.5-0.1-0.9-0.3-1.4-0.4c-0.5-0.2-0.9-0.4-1.3-0.6c0.1-0.4,0.3-0.7,0.5-1.1 c0.2-0.3,0.3-0.7,0.5-1c0.3,0.2,0.7,0.3,1.1,0.5c0.4,0.1,0.8,0.3,1.2,0.4c0.4,0.1,0.8,0.2,1.2,0.2c0.4,0.1,0.8,0.1,1.1,0.1 c0.5,0,0.9-0.1,1.3-0.2c0.4-0.1,0.8-0.3,1.2-0.5c0.3-0.2,0.6-0.6,0.8-0.9c0.2-0.4,0.3-0.8,0.3-1.4c0-0.5-0.1-0.9-0.3-1.3 c-0.2-0.3-0.5-0.6-0.8-0.8c-0.3-0.2-0.7-0.4-1.1-0.5s-0.9-0.3-1.4-0.4c-0.7-0.2-1.4-0.4-2.1-0.7c-0.7-0.2-1.2-0.6-1.7-1 c-0.5-0.4-0.9-0.9-1.2-1.5s-0.4-1.3-0.4-2.2c0-0.8,0.2-1.5,0.5-2.1c0.3-0.6,0.7-1.1,1.3-1.5c0.5-0.4,1.1-0.7,1.8-0.9 C314.3,129.6,315,129.6,315.8,129.6z"/>
    <path class="logo-subtitle" d="M328.2,140.8c0,0.9,0,1.7,0,2.3c0,0.6,0,1.2,0.1,1.7s0.1,0.9,0.1,1.3c0.1,0.4,0.2,0.8,0.3,1.3c-0.4,0.1-0.9,0.2-1.3,0.3 c-0.4,0.1-0.9,0.2-1.3,0.3c-0.2-0.7-0.4-1.4-0.4-2c-0.1-0.6-0.1-1.2-0.1-1.8v-20.9h2.7V140.8z"/>
    <path class="logo-subtitle" d="M335,123.1c0.5,0,0.9,0.2,1.3,0.5c0.3,0.4,0.5,0.9,0.5,1.4c0,0.5-0.2,1-0.5,1.4c-0.4,0.4-0.8,0.6-1.3,0.6 c-0.5,0-0.9-0.2-1.3-0.6c-0.4-0.4-0.5-0.8-0.5-1.4c0-0.5,0.2-1,0.5-1.4C334.1,123.3,334.5,123.1,335,123.1z M333.6,129.9h2.7v17.7 h-2.7V129.9z"/>
    <path class="logo-subtitle" d="M353.3,147c-0.8,0.3-1.7,0.6-2.6,0.7s-1.8,0.3-2.6,0.3c-1.3,0-2.3-0.2-3.3-0.6s-1.7-1-2.3-1.7c-0.6-0.8-1-1.7-1.3-2.8 c-0.3-1.1-0.4-2.4-0.4-3.8c0-1.5,0.2-2.9,0.5-4.1s0.9-2.2,1.6-3s1.5-1.4,2.5-1.8s2.1-0.6,3.4-0.6c0.6,0,1.3,0.1,1.9,0.2 c0.7,0.1,1.3,0.3,2,0.5l-0.7,2.4c-0.5-0.2-1-0.3-1.5-0.5s-1-0.2-1.5-0.2c-1.8,0-3.2,0.6-4.1,1.7c-1,1.1-1.4,2.8-1.4,5.1 c0,1.1,0.1,2,0.2,2.8c0.1,0.8,0.4,1.5,0.8,2.1c0.4,0.6,0.9,1,1.5,1.3c0.6,0.3,1.4,0.5,2.4,0.5c0.6,0,1.3-0.1,2-0.3s1.5-0.4,2.3-0.7 L353.3,147z"/>
    <path class="logo-subtitle" d="M369.4,146.6c-1.2,0.5-2.3,0.9-3.3,1.1c-1,0.2-1.9,0.3-2.7,0.3c-1.2,0-2.3-0.2-3.2-0.6c-0.9-0.4-1.7-1-2.3-1.8 s-1.1-1.7-1.4-2.8c-0.3-1.1-0.5-2.3-0.5-3.5c0-0.8,0.1-1.6,0.2-2.4s0.3-1.5,0.5-2.3c0.2-0.7,0.5-1.4,0.9-2c0.4-0.6,0.8-1.2,1.4-1.6 s1.2-0.8,1.9-1.1c0.7-0.3,1.5-0.4,2.4-0.4c2.3,0,4.1,0.8,5.3,2.4c1.2,1.6,1.8,3.8,1.8,6.8v0.9h-11.5c0,1,0.1,1.8,0.3,2.5 c0.2,0.7,0.5,1.3,0.9,1.9c0.4,0.5,0.9,0.9,1.5,1.1c0.6,0.3,1.3,0.4,2.1,0.4c0.5,0,0.9,0,1.4-0.1c0.5-0.1,0.9-0.2,1.3-0.3 c0.4-0.1,0.8-0.3,1.2-0.4c0.4-0.1,0.8-0.3,1.1-0.4L369.4,146.6z M367.6,137.3c-0.1-1.8-0.5-3.2-1.2-4c-0.7-0.8-1.8-1.3-3.1-1.3 s-2.4,0.4-3.1,1.3c-0.7,0.8-1.1,2.2-1.3,4H367.6z"/>
    <path class="logo-subtitle" d="M374.2,124.5c0.4-0.6,0.8-1,1.2-1.3c0.4-0.2,0.8-0.4,1.3-0.4c0.4,0,0.7,0.1,0.9,0.2c0.3,0.2,0.5,0.4,0.6,0.6 c0.2,0.3,0.3,0.6,0.3,0.9c0.1,0.4,0.1,0.7,0.1,1.2l-0.6,14.7l-1.9,0.6l-0.6-13.7L374.2,124.5z M376.9,143.8c0.3,0,0.5,0.1,0.7,0.2 c0.2,0.1,0.4,0.3,0.6,0.4c0.2,0.2,0.3,0.4,0.4,0.7c0.1,0.3,0.1,0.5,0.1,0.8c0,0.3,0,0.5-0.1,0.8c-0.1,0.2-0.2,0.5-0.4,0.7 c-0.2,0.2-0.4,0.3-0.6,0.5c-0.2,0.1-0.5,0.2-0.7,0.2c-0.3,0-0.5-0.1-0.7-0.2c-0.2-0.1-0.4-0.3-0.6-0.4c-0.2-0.2-0.3-0.4-0.4-0.7 c-0.1-0.3-0.2-0.5-0.2-0.8s0.1-0.6,0.2-0.8c0.1-0.3,0.2-0.5,0.4-0.7c0.2-0.2,0.4-0.3,0.6-0.4C376.4,143.9,376.7,143.8,376.9,143.8z "/>
  </g>
</svg>