<?xml version="1.0" encoding="utf-8"?>
<svg viewBox="358.506 32.789 101.03 152.115" xmlns="http://www.w3.org/2000/svg">
  <path d="M 410.282 176.604 M 425.882 175.404 M 391.582 152.204 M 451.582 141.104 C 451.382 141.304 451.282 141.504 451.082 141.804 L 442.182 177.704 C 442.182 178.304 441.882 178.904 441.382 179.204 C 440.982 179.404 432.582 184.904 410.382 184.904 C 388.182 184.904 379.682 179.404 379.382 179.204 C 378.982 178.904 378.682 178.504 378.582 178.104 L 369.582 141.804 C 367.282 139.004 365.582 135.704 364.382 132.204 C 364.382 132.204 364.382 132.104 364.382 132.104 C 364.082 131.204 363.882 130.304 363.682 129.404 C 363.682 129.304 363.682 129.204 363.582 129.104 C 362.982 126.304 362.582 123.304 362.682 120.104 C 362.682 120.104 362.682 120.104 362.682 120.004 C 362.682 119.904 362.682 119.904 362.682 119.804 C 357.982 114.604 357.782 107.804 359.482 102.904 C 361.282 97.404 365.282 93.404 369.882 92.204 C 369.282 89.304 368.782 83.904 370.782 79.504 C 373.382 73.704 376.882 70.104 386.182 68.904 C 385.282 64.704 385.982 58.304 392.882 54.304 C 396.382 52.204 397.682 48.704 398.182 46.004 C 398.982 41.504 397.882 37.204 397.182 36.304 C 396.482 35.804 396.282 34.804 396.582 34.004 C 396.982 33.104 397.882 32.704 398.782 32.804 C 399.082 32.904 431.382 39.204 429.882 63.304 C 437.182 63.904 441.282 67.104 443.482 69.804 C 446.482 73.504 447.782 78.604 447.182 84.004 C 450.282 85.104 456.582 88.304 458.682 95.904 C 460.782 103.604 458.482 109.304 457.382 111.504 C 457.382 111.504 457.382 111.504 457.382 111.504 C 458.582 118.104 458.382 124.604 456.882 130.304 C 456.882 130.304 456.882 130.304 456.882 130.304 C 456.682 130.904 456.582 131.504 456.382 132.104 C 456.382 132.204 456.282 132.204 456.282 132.304 C 456.082 132.804 455.882 133.404 455.682 133.904 C 455.682 134.004 455.582 134.104 455.582 134.204 C 455.382 134.704 455.182 135.104 454.982 135.604 C 454.882 135.704 454.882 135.904 454.782 136.004 C 454.582 136.404 454.382 136.804 454.182 137.304 C 454.082 137.504 453.982 137.604 453.882 137.804 C 453.682 138.204 453.482 138.604 453.182 138.904 C 453.082 139.104 452.982 139.204 452.882 139.404 C 452.682 139.704 452.382 140.104 452.182 140.404 C 451.882 140.704 451.682 140.904 451.582 141.104 Z M 366.682 118.304 C 367.182 118.604 369.482 120.004 373.882 121.404 C 373.882 121.404 373.882 121.404 373.882 121.404 C 374.482 121.604 375.082 121.804 375.782 122.004 C 375.882 122.004 375.882 122.004 375.982 122.104 C 376.582 122.304 377.282 122.504 377.982 122.704 C 378.082 122.704 378.182 122.804 378.382 122.804 C 379.082 123.004 379.782 123.104 380.482 123.304 C 380.682 123.304 380.782 123.404 380.982 123.404 C 381.682 123.604 382.482 123.704 383.182 123.904 C 383.382 123.904 383.582 124.004 383.782 124.004 C 384.582 124.104 385.382 124.304 386.182 124.404 C 386.382 124.404 386.582 124.504 386.782 124.504 C 387.682 124.604 388.482 124.704 389.382 124.804 C 389.582 124.804 389.782 124.804 389.982 124.904 C 390.982 125.004 391.882 125.104 392.982 125.204 C 393.082 125.204 393.082 125.204 393.182 125.204 C 395.582 125.404 398.082 125.504 400.782 125.504 C 407.982 125.504 415.682 124.804 423.682 123.504 C 423.882 123.504 424.082 123.404 424.282 123.404 C 425.182 123.204 426.082 123.104 426.882 122.904 C 427.182 122.804 427.482 122.804 427.782 122.704 C 428.682 122.504 429.582 122.304 430.382 122.104 C 430.782 122.004 431.082 121.904 431.482 121.804 C 432.282 121.604 432.982 121.404 433.682 121.204 C 434.082 121.104 434.482 121.004 434.982 120.804 C 435.382 120.704 435.782 120.604 436.182 120.404 C 436.882 120.204 437.582 119.904 438.282 119.704 C 438.382 119.704 438.482 119.604 438.482 119.604 C 449.982 115.504 453.282 110.604 453.382 110.504 C 453.582 110.204 456.982 104.904 454.782 97.004 C 452.882 90.204 446.482 87.904 444.782 87.504 C 432.382 96.504 413.982 99.004 399.282 99.004 C 392.882 99.004 387.182 98.504 383.082 97.904 C 382.182 97.804 381.582 96.904 381.682 96.104 C 381.782 95.204 382.682 94.604 383.482 94.704 C 398.882 97.004 427.082 96.304 442.882 84.804 C 443.782 80.104 442.782 75.504 440.282 72.404 C 437.582 69.104 433.182 67.304 427.582 67.304 C 420.082 72.204 410.582 73.504 402.482 73.504 C 400.282 73.504 398.282 73.404 396.382 73.304 C 395.482 73.204 394.782 72.504 394.882 71.604 C 394.982 70.704 395.682 70.004 396.582 70.104 C 403.582 70.604 416.482 70.604 425.682 64.704 C 427.682 47.504 409.582 40.204 401.582 37.804 C 401.982 39.604 402.182 41.804 402.082 43.704 C 401.882 50.104 399.282 55.104 394.682 57.804 C 387.282 62.104 389.982 69.204 390.382 70.004 C 390.582 70.604 390.582 71.204 390.282 71.804 C 389.982 72.304 389.382 72.704 388.782 72.704 C 378.582 73.304 376.282 76.604 374.282 81.204 C 372.082 86.104 374.082 93.304 374.082 93.304 C 374.282 93.904 374.182 94.504 373.782 95.004 C 373.482 95.504 372.882 95.804 372.282 95.804 C 368.282 96.104 364.682 99.304 363.082 104.104 C 361.782 108.304 361.982 114.304 366.682 118.304 Z M 445.982 146.104 C 445.782 146.204 445.482 146.404 445.182 146.504 C 445.082 146.604 444.982 146.604 444.882 146.704 C 444.382 146.904 443.882 147.104 443.382 147.404 C 443.182 147.504 443.082 147.504 442.882 147.604 C 442.382 147.804 441.782 148.004 441.182 148.104 C 441.082 148.104 440.882 148.204 440.782 148.204 C 440.182 148.404 439.582 148.504 438.982 148.504 C 438.882 148.504 438.682 148.504 438.582 148.504 C 438.082 148.504 437.682 148.604 437.282 148.604 C 437.182 148.604 437.182 148.604 437.082 148.604 C 436.182 148.604 435.382 148.504 434.582 148.404 C 434.482 148.404 434.482 148.404 434.482 148.404 C 434.082 148.304 433.682 148.204 433.282 148.104 C 433.282 148.104 433.282 148.104 433.182 148.104 C 432.382 147.904 431.682 147.604 431.082 147.304 C 431.082 147.304 431.082 147.304 430.982 147.304 C 430.682 147.104 430.382 147.004 430.082 146.904 C 428.782 148.104 426.682 149.404 423.882 150.204 C 423.782 150.204 423.682 150.204 423.682 150.304 C 423.282 150.404 422.882 150.504 422.582 150.504 C 422.482 150.504 422.282 150.604 422.182 150.604 C 421.782 150.704 421.282 150.704 420.782 150.804 C 420.682 150.804 420.582 150.804 420.482 150.804 C 420.082 150.804 419.782 150.804 419.382 150.804 C 419.282 150.804 419.082 150.804 418.982 150.804 C 418.782 150.804 418.682 150.804 418.482 150.804 C 418.082 150.804 417.682 150.704 417.382 150.704 C 417.282 150.704 417.182 150.704 417.082 150.704 C 416.682 150.604 416.282 150.604 415.882 150.504 C 415.782 150.504 415.682 150.504 415.682 150.404 C 415.282 150.304 414.882 150.204 414.582 150.104 C 414.482 150.104 414.482 150.104 414.382 150.004 C 413.982 149.904 413.582 149.704 413.282 149.604 C 413.282 149.604 413.182 149.604 413.182 149.604 C 411.982 149.104 411.082 148.604 410.282 148.104 C 409.882 148.404 409.282 148.704 408.682 149.004 C 408.582 149.004 408.482 149.104 408.382 149.104 C 408.182 149.204 407.982 149.304 407.682 149.404 C 407.582 149.504 407.382 149.504 407.282 149.604 C 407.082 149.704 406.882 149.804 406.582 149.804 C 406.382 149.904 406.282 149.904 406.082 149.904 C 405.882 150.004 405.582 150.104 405.382 150.104 C 405.182 150.104 405.082 150.204 404.882 150.204 C 404.582 150.304 404.382 150.304 404.082 150.404 C 403.882 150.404 403.582 150.504 403.382 150.504 C 403.182 150.504 402.882 150.604 402.682 150.604 C 402.182 150.604 401.782 150.704 401.282 150.704 C 401.282 150.704 401.182 150.704 401.182 150.704 C 401.182 150.704 401.182 150.704 401.182 150.704 L 401.182 150.704 L 401.182 150.704 C 400.882 150.704 400.482 150.704 400.082 150.704 C 399.482 150.704 398.882 150.604 398.382 150.504 C 398.182 150.504 397.882 150.404 397.682 150.404 C 397.382 150.304 397.082 150.304 396.882 150.204 C 396.582 150.104 396.282 150.004 395.982 149.904 C 395.782 149.804 395.582 149.804 395.482 149.704 C 395.182 149.604 394.882 149.504 394.582 149.404 C 394.482 149.304 394.282 149.304 394.182 149.204 C 393.882 149.104 393.682 149.004 393.382 148.804 C 393.282 148.704 393.082 148.704 392.982 148.604 C 392.782 148.504 392.582 148.404 392.382 148.204 C 392.282 148.104 392.082 148.004 391.982 148.004 C 391.682 147.804 391.482 147.704 391.282 147.504 C 391.282 147.504 391.182 147.404 391.182 147.404 C 390.882 147.204 390.682 147.004 390.382 146.804 C 390.382 146.804 390.382 146.804 390.382 146.804 C 390.182 146.904 389.982 147.004 389.682 147.204 C 389.582 147.304 389.482 147.304 389.282 147.404 C 389.082 147.504 388.882 147.604 388.682 147.704 C 388.582 147.704 388.482 147.804 388.382 147.804 C 388.082 147.904 387.682 148.004 387.382 148.104 C 387.282 148.104 387.282 148.104 387.182 148.204 C 386.882 148.304 386.482 148.404 386.082 148.404 C 385.982 148.404 385.982 148.404 385.882 148.404 C 385.082 148.504 384.282 148.604 383.382 148.604 C 383.282 148.604 383.282 148.604 383.182 148.604 C 382.782 148.604 382.382 148.604 381.882 148.504 C 381.682 148.504 381.582 148.504 381.482 148.504 C 380.882 148.404 380.282 148.304 379.682 148.204 C 379.482 148.204 379.382 148.104 379.182 148.104 C 378.582 147.904 377.982 147.804 377.482 147.604 C 377.182 147.504 376.882 147.404 376.682 147.204 C 376.282 147.004 375.982 146.904 375.582 146.704 C 375.282 146.504 374.982 146.404 374.682 146.204 C 374.582 146.104 374.482 146.104 374.382 146.004 L 381.882 176.204 C 384.082 177.304 392.482 180.904 410.182 180.904 C 427.582 180.904 435.982 177.404 438.382 176.204 L 445.982 146.104 Z"/>
  <path d="M 418.682 168.304 C 418.482 168.204 418.182 168.204 417.982 168.204 C 416.982 168.204 416.082 168.904 415.782 169.804 C 415.782 169.804 414.782 172.904 410.282 172.904 C 405.782 172.904 404.782 169.904 404.782 169.804 C 404.482 168.804 403.582 168.204 402.582 168.204 C 402.382 168.204 402.082 168.204 401.882 168.304 C 400.682 168.704 399.982 170.004 400.382 171.204 C 400.382 171.204 400.382 171.204 400.382 171.204 C 400.482 171.504 402.482 177.504 410.282 177.504 C 418.082 177.504 420.082 171.504 420.182 171.204 C 420.482 170.004 419.882 168.704 418.682 168.304 Z"/>
  <path d="M 432.582 161.404 C 432.582 157.904 429.782 155.104 426.282 155.104 C 422.782 155.104 419.982 157.904 419.982 161.404 C 419.982 162.704 420.982 163.704 422.282 163.704 C 423.582 163.704 424.582 162.704 424.582 161.404 C 424.582 160.404 425.382 159.704 426.382 159.704 C 427.282 159.704 427.982 160.504 428.082 161.404 C 428.082 162.704 429.082 163.704 430.382 163.704 C 431.682 163.704 432.582 162.704 432.582 161.404"/>
  <path d="M 401.082 161.404 C 401.082 157.904 398.282 155.104 394.782 155.104 C 391.282 155.104 388.482 157.904 388.482 161.404 C 388.482 162.704 389.482 163.704 390.782 163.704 C 392.082 163.704 393.082 162.704 393.082 161.404 C 393.082 160.404 393.882 159.704 394.782 159.704 C 395.682 159.704 396.482 160.504 396.482 161.404 C 396.482 162.704 397.482 163.704 398.782 163.704 C 400.082 163.704 401.082 162.704 401.082 161.404 L 401.082 161.404 Z"/>
</svg>